<?xml version="1.0" encoding="iso-8859-1"?>
<!-- Generator: Adobe Illustrator 21.0.0, SVG Export Plug-In . SVG Version: 6.00 Build 0)  -->
<svg xmlns="http://www.w3.org/2000/svg" xmlns:xlink="http://www.w3.org/1999/xlink" version="1.1" id="Capa_1" x="0px" y="0px" viewBox="0 0 511.862 511.862" style="enable-background:new 0 0 511.862 511.862;" xml:space="preserve" width="512" height="512">
<g>
	<path d="M183.526,45.295c17.445,1.746,31.62,13.904,36.235,30.368c-19.095,7.173-35.603,19.852-47.662,36.144   c6.323,2.147,12.53,4.461,18.498,6.923c20.075,8.28,36.636,17.72,49.223,28.057c6.628,5.444,11.91,10.956,16.111,16.396   c4.201-5.441,9.483-10.953,16.111-16.396c12.587-10.338,29.148-19.778,49.223-28.057c5.967-2.461,12.174-4.776,18.497-6.923   c-12.058-16.292-28.567-28.971-47.662-36.144c4.615-16.464,18.79-28.622,36.235-30.368c8.243-0.825,14.256-8.176,13.432-16.419   c-0.825-8.243-8.171-14.257-16.419-13.432C294.8,18.501,270.1,40.184,262.744,69.335c-2.253-0.148-4.524-0.229-6.813-0.229   s-4.56,0.081-6.813,0.229c-7.355-29.151-32.056-50.834-62.604-53.891c-8.246-0.822-15.594,5.189-16.419,13.432   C169.27,37.119,175.283,44.47,183.526,45.295z"/>
	<path d="M272.042,264.023c-6.628-5.444-11.91-10.956-16.111-16.396c-4.201,5.441-9.483,10.953-16.111,16.396   c-12.587,10.338-29.148,19.778-49.223,28.057c-12.542,5.173-26.129,9.71-39.667,13.365v29.542h210v-29.542   c-13.537-3.655-27.125-8.193-39.666-13.365C301.19,283.8,284.629,274.36,272.042,264.023z"/>
	<path d="M161.318,394.237h189.226c4.313-9.111,7.391-18.937,9.029-29.25H152.289C153.927,375.3,157.005,385.127,161.318,394.237z"/>
	<path d="M182.443,424.237c15.584,15.6,35.9,26.291,58.521,29.601c-0.009,0.219-0.033,0.434-0.033,0.655v27c0,8.284,6.716,15,15,15   s15-6.716,15-15v-27c0-0.221-0.024-0.436-0.033-0.655c22.621-3.31,42.937-14.001,58.521-29.601H182.443z"/>
	<path d="M241.18,205.405c0-27.573-33.727-47.272-62.021-58.941c-29.786-12.285-67.069-20.865-90.666-20.865   C39.698,125.598,0,161.399,0,205.405c0,44.006,39.698,79.807,88.493,79.807c23.596,0,60.879-8.58,90.666-20.866   C207.453,252.677,241.18,232.978,241.18,205.405z"/>
	<path d="M423.369,125.598c-23.596,0-60.879,8.58-90.665,20.865c-28.294,11.67-62.021,31.368-62.021,58.941   c0,27.573,33.727,47.272,62.021,58.941c29.786,12.285,67.069,20.866,90.665,20.866c48.795,0,88.493-35.801,88.493-79.807   C511.862,161.399,472.164,125.598,423.369,125.598z"/>
</g>















</svg>
